<svg width="14" height="21" viewBox="0 0 14 21" fill="none" xmlns="http://www.w3.org/2000/svg">
<path d="M7 10C6.33696 10 5.70107 9.73661 5.23223 9.26777C4.76339 8.79893 4.5 8.16304 4.5 7.5C4.5 6.83696 4.76339 6.20107 5.23223 5.73223C5.70107 5.26339 6.33696 5 7 5C7.66304 5 8.29893 5.26339 8.76777 5.73223C9.23661 6.20107 9.5 6.83696 9.5 7.5C9.5 7.8283 9.43534 8.15339 9.3097 8.45671C9.18406 8.76002 8.99991 9.03562 8.76777 9.26777C8.53562 9.49991 8.26002 9.68406 7.95671 9.8097C7.65339 9.93534 7.3283 10 7 10ZM7 0.5C5.14348 0.5 3.36301 1.2375 2.05025 2.55025C0.737498 3.86301 0 5.64348 0 7.5C0 12.75 7 20.5 7 20.5C7 20.5 14 12.75 14 7.5C14 5.64348 13.2625 3.86301 11.9497 2.55025C10.637 1.2375 8.85652 0.5 7 0.5Z" fill="black"/>
</svg>
