<svg width="18" height="17" viewBox="0 0 18 17" fill="none" xmlns="http://www.w3.org/2000/svg">
<path d="M12.0917 10.7645L11.6536 11.1909C11.6536 11.1909 10.6107 12.2036 7.76514 9.43841C4.91961 6.67321 5.96249 5.66049 5.96249 5.66049L6.23789 5.39131C6.9187 4.7306 6.98322 3.66895 6.38908 2.89341L5.17575 1.3094C4.44005 0.349391 3.01969 0.222331 2.17711 1.04116L0.665265 2.50941C0.248304 2.916 -0.0309533 3.44118 0.0027502 4.02471C0.0894163 5.51837 0.780819 8.73064 4.6365 12.4784C8.72617 16.4521 12.5636 16.6102 14.1322 16.4672C14.6291 16.422 15.0605 16.1754 15.4081 15.8366L16.7755 14.5076C17.7 13.6107 17.44 12.0718 16.2575 11.4441L14.4182 10.4662C13.6421 10.0539 12.6984 10.1754 12.0917 10.7645Z" fill="black"/>
</svg>
