<svg width="18" height="15" viewBox="0 0 18 15" fill="none" xmlns="http://www.w3.org/2000/svg">
<path d="M2.33366 14.1663C1.87533 14.1663 1.4831 14.0033 1.15699 13.6772C0.830881 13.3511 0.667548 12.9586 0.666992 12.4997V2.49967C0.666992 2.04134 0.830326 1.64912 1.15699 1.32301C1.48366 0.996897 1.87588 0.833563 2.33366 0.833008H15.667C16.1253 0.833008 16.5178 0.996341 16.8445 1.32301C17.1712 1.64967 17.3342 2.0419 17.3337 2.49967V12.4997C17.3337 12.958 17.1706 13.3505 16.8445 13.6772C16.5184 14.0038 16.1259 14.1669 15.667 14.1663H2.33366ZM9.00033 8.33301L15.667 4.16634V2.49967L9.00033 6.66634L2.33366 2.49967V4.16634L9.00033 8.33301Z" fill="black"/>
</svg>
