<svg width="17" height="18" viewBox="0 0 17 18" fill="none" xmlns="http://www.w3.org/2000/svg">
<path d="M14.3415 3.15019C12.761 1.57519 10.6537 0.700195 8.42927 0.700195C3.80488 0.700195 0.0585357 4.43353 0.0585357 9.04186C0.0585357 10.2046 0.319019 11.3673 0.780645 12.4118C1.00456 12.9185 1.08927 13.4839 0.944284 14.0185C0.524048 15.568 1.93657 16.9923 3.48951 16.5851L3.63548 16.5468C4.15882 16.4096 4.71026 16.4829 5.21107 16.6876C6.22685 17.1028 7.30946 17.3252 8.42927 17.3252C13.0537 17.3252 16.8 13.5919 16.8 8.98353C16.7415 6.8252 15.922 4.72519 14.3415 3.15019ZM12.4683 12.0169C12.2927 12.4835 11.4732 12.9502 11.0634 13.0085C10.7122 13.0669 10.2439 13.0669 9.77561 12.9502C9.48293 12.8335 9.07317 12.7169 8.60488 12.4835C7.80884 12.153 7.12139 11.6477 6.56777 11.1373C5.40723 10.0675 4.1561 8.75359 4.1561 7.17519C4.1561 6.1252 4.68293 5.65853 4.85854 5.42519C5.03415 5.19186 5.26829 5.19186 5.4439 5.19186C5.56098 5.19186 5.73658 5.19186 5.85366 5.19186C5.97073 5.19186 6.14634 5.13353 6.32195 5.54186C6.43896 5.81393 6.65991 6.37085 6.81166 6.72951C6.90564 6.95164 7.07402 7.19295 6.96585 7.40853C6.90732 7.5252 6.84878 7.64186 6.73171 7.75853C6.61463 7.8752 6.49756 8.0502 6.43902 8.10853C6.32195 8.22519 6.20488 8.34186 6.32195 8.51686C6.43902 8.75019 6.84878 9.39186 7.49268 9.97519C8.31219 10.6752 8.9561 10.9085 9.19024 11.0252C9.42439 11.1419 9.54146 11.0835 9.65854 10.9669C9.77561 10.8502 10.1854 10.3835 10.3024 10.1502C10.4195 9.91686 10.5951 9.9752 10.7707 10.0335C10.9463 10.0919 12 10.6169 12.1756 10.7335C12.454 10.8722 12.6429 11.1268 12.6096 11.436C12.5912 11.6069 12.5477 11.8059 12.4683 12.0169Z" fill="black"/>
</svg>
